<svg width="5" height="11" viewBox="0 0 6.51123 11.5493" fill="none" xmlns="http://www.w3.org/2000/svg" xmlns:xlink="http://www.w3.org/1999/xlink">
	<desc>
			Created with Pixso.
	</desc>
	<defs/>
	<path id="&gt;" d="M0 10.13L0 11.54L1.41 11.54L1.41 10.27L2.68 10.27L2.68 9L3.96 9L3.96 7.74L5.22 7.74L5.22 6.46L6.51 6.46L6.51 5.08L5.22 5.08L5.22 3.8L3.96 3.8L3.96 2.53L2.68 2.53L2.68 1.27L1.41 1.27L1.41 0L0 0L0 1.41L1.27 1.41L1.27 2.67L2.54 2.67L2.54 3.94L3.82 3.94L3.82 5.2L5.09 5.2L5.09 6.32L3.82 6.32L3.82 7.6L2.54 7.6L2.54 8.86L1.27 8.86L1.27 10.13L0 10.13Z" fill="#D7D7D7" fill-opacity="0.720000" fill-rule="evenodd"/>
</svg>
